<svg width="101" height="101" viewBox="0 0 101 101" fill="none" xmlns="http://www.w3.org/2000/svg">
<rect x="0.703125" y="0.492188" width="100" height="100" fill="#22355C"/>
<path d="M38.9802 77.4928C35.7594 77.4928 32.5958 76.2904 30.3 74.1918C29.121 73.1142 26.9026 70.7544 25.3065 67.0543C23.2125 62.2017 22.8139 56.6657 24.1207 50.5992C25.8262 42.6834 28.3086 36.9229 31.9365 32.4678C38.2553 24.7067 46.2611 23.5077 50.4691 23.4844H50.7483C54.4653 23.4844 57.3867 23.8768 61.3106 25.884C64.0789 27.3009 66.1443 29.5675 67.4461 32.6224C67.801 33.4556 68.4485 35.7871 68.4014 36.9478C68.3913 37.1989 68.509 37.3037 69.0355 37.5066C72.5725 38.8785 72.929 39.1296 73.9869 39.8763C74.1551 39.9944 74.3418 40.1258 74.5638 40.2787C77.0328 41.965 77.6871 43.8641 77.9814 46.5731C78.4994 51.3492 75.2988 53.9966 73.3444 55.1491C71.232 56.3963 68.6066 57.557 63.7577 57.6152C63.5609 57.6169 63.3658 57.6186 63.1707 57.6186C58.781 57.6186 55.4761 56.9817 52.4521 55.5565C52.2688 55.47 52.0905 55.3719 51.9223 55.2638C51.781 55.1723 51.6498 55.0942 51.5338 55.0227C50.6861 54.5072 50.306 54.2045 50.9451 52.9822C51.3202 52.2655 52.1914 51.429 53.4108 51.429C53.7825 51.429 54.1609 51.5071 54.5376 51.6635C54.8505 51.7932 55.1633 51.9345 55.4677 52.0726C56.238 52.4201 56.9663 52.7494 57.7029 52.9107C60.066 53.4246 62.0085 53.664 63.8132 53.664C66.0114 53.664 68.0246 53.3032 69.9706 52.5598C72.2142 51.7017 74.6345 49.5349 74.9153 47.0537C75.102 45.4057 74.256 43.9057 72.4699 42.7183C71.3884 41.9999 70.09 41.644 68.837 41.3015C67.1854 40.8491 65.6246 40.4218 64.9687 39.1812C64.6256 38.531 64.5701 37.741 64.5061 36.8264C64.3413 34.4683 64.1378 31.5348 58.8449 29.0387C56.4953 27.9295 53.1921 27.4705 51.9458 27.4705H51.8617C44.1183 27.6019 40.3492 30.3425 36.4557 35.0321C32.2173 40.1374 29.5566 47.6607 29.338 55.1574C29.2404 58.5133 29.8896 65.0737 32.9456 68.3763C34.2507 69.7882 36.4372 71.2949 38.6606 71.2949C41.2507 71.2949 43.3884 69.2361 44.8449 65.3381C45.9045 62.5044 45.2805 52.9689 45.0451 49.3802C44.9795 48.3824 44.9542 47.9733 44.9627 47.8453C45.0081 47.1352 44.9189 46.6429 44.8466 46.2472C44.7306 45.6069 44.638 45.103 45.3528 44.5326C45.7195 44.24 46.1837 44.0803 46.6597 44.0803C47.3173 44.0803 47.953 44.383 48.4509 44.9334C49.2245 45.7898 49.6602 46.8492 49.8216 48.266C50.4288 53.5958 50.9434 58.8109 50.5768 64.011C50.2051 69.2744 47.9396 73.3836 43.8425 76.2256C42.6618 77.0454 40.9362 77.4961 38.9836 77.4961L38.9802 77.4928Z" fill="white"/>
</svg>
