<svg width="52" height="51" viewBox="0 0 52 51" fill="none" xmlns="http://www.w3.org/2000/svg">
<g id="Vector">
<path d="M51.5 25.5C51.5 39.5833 40.0833 51 26 51C11.9167 51 0.5 39.5833 0.5 25.5C0.5 11.4167 11.9167 0 26 0C40.0833 0 51.5 11.4167 51.5 25.5Z" fill="#F4B434"/>
<path fill-rule="evenodd" clip-rule="evenodd" d="M14.9844 12.3431C15.1933 12.1616 15.4514 12.046 15.726 12.0112C16.0006 11.9763 16.2793 12.0236 16.527 12.1471L41.7246 24.7466C41.9575 24.8627 42.1535 25.0415 42.2905 25.2628C42.4274 25.4841 42.5 25.7393 42.5 25.9996C42.5 26.2598 42.4274 26.515 42.2905 26.7363C42.1535 26.9576 41.9575 27.1364 41.7246 27.2525L16.527 39.852C16.2794 39.976 16.0005 40.0236 15.7257 39.989C15.4509 39.9544 15.1925 39.8391 14.9833 39.6576C14.7741 39.4761 14.6234 39.2366 14.5504 38.9694C14.4773 38.7022 14.4851 38.4194 14.5728 38.1567L18.1593 27.3995H25.7003C26.0716 27.3995 26.4277 27.252 26.6902 26.9895C26.9527 26.7269 27.1002 26.3708 27.1002 25.9996C27.1002 25.6283 26.9527 25.2722 26.6902 25.0096C26.4277 24.7471 26.0716 24.5996 25.7003 24.5996H18.1593L14.5714 13.8424C14.4842 13.5798 14.4767 13.2972 14.5499 13.0304C14.6232 12.7635 14.7753 12.5243 14.9844 12.3431Z" fill="white"/>
</g>
</svg>
